# xmcd CD database file
#
# Track frame offsets:
#	150
#	31060
#	58479
#	85707
#	113160
#	146530
#	167765
#	199067
#	227129
#	256224
#	280160
#
# Disc length: 4097 seconds
#
# Revision: 1
# Processed by: cddbd v1.5.2PL0 Copyright (c) Steve Scherf et al.
# Submitted via: CDex 1.51
#
DISCID=950fff0b
DTITLE=The New Bopquartet - Release
DYEAR=2001
DGENRE=Jazz
TTITLE0=Jules Vernes
TTITLE1=Balloon
TTITLE2=Funky Blues
TTITLE3=The Sleeping Beauty
TTITLE4=P.O.V.
TTITLE5=Gehen und Bleiben
TTITLE6=Light Flight
TTITLE7=Blood Orange
TTITLE8=Song For My Brother
TTITLE9=Amanecer
TTITLE10=Release
EXTD=YEAR: 2001
EXTT0=
EXTT1=
EXTT2=
EXTT3=
EXTT4=
EXTT5=
EXTT6=
EXTT7=
EXTT8=
EXTT9=
EXTT10=
PLAYORDER=
